HIERARCHY
ROOT hip
{
	OFFSET 0.000000 0.000000 0.000000
	CHANNELS 6 Xposition Yposition Zposition Xrotation Zrotation Yrotation 
	JOINT abdomen
	{
		OFFSET 0.000000 3.422050 0.000000
		CHANNELS 3 Xrotation Zrotation Yrotation 
		JOINT chest
		{
			OFFSET 0.000000 8.486693 -0.6844110
			CHANNELS 3 Xrotation Zrotation Yrotation 
			JOINT neck
			{
				OFFSET 0.000000 10.26616 -0.2737640
				CHANNELS 3 Xrotation Zrotation Yrotation 
				JOINT head
				{
					OFFSET 0.000000 3.148285 0.000000
					CHANNELS 3 Xrotation Zrotation Yrotation 
					End Site
					{
						OFFSET 0.000000 3.148289 0.000000
					}
				}
			}
			JOINT lCollar
			{
				OFFSET 3.422053 6.707223 -0.8212930
				CHANNELS 3 Yrotation Zrotation Xrotation 
				JOINT lShldr
				{
					OFFSET 3.285171 0.000000 0.000000
					CHANNELS 3 Zrotation Yrotation Xrotation 
					JOINT lForeArm
					{
						OFFSET 10.12928 0.000000 0.000000
						CHANNELS 3 Yrotation Zrotation Xrotation 
						JOINT lHand
						{
							OFFSET 8.486692 0.000000 0.000000
							CHANNELS 3 Zrotation Yrotation Xrotation 
							End Site
							{
								OFFSET 4.106464 0.000000 0.000000
							}
						}
					}
				}
			}
			JOINT rCollar
			{
				OFFSET -3.558935 6.707223 -0.8212930
				CHANNELS 3 Yrotation Zrotation Xrotation 
				JOINT rShldr
				{
					OFFSET -3.148289 0.000000 0.000000
					CHANNELS 3 Zrotation Yrotation Xrotation 
					JOINT rForeArm
					{
						OFFSET -10.26616 0.000000 0.000000
						CHANNELS 3 Yrotation Zrotation Xrotation 
						JOINT rHand
						{
							OFFSET -8.349810 0.000000 0.000000
							CHANNELS 3 Zrotation Yrotation Xrotation 
							End Site
							{
								OFFSET -4.106464 0.000000 0.000000
							}
						}
					}
				}
			}
		}
	}
	JOINT lThigh
	{
		OFFSET 5.338403 -1.642589 1.368821
		CHANNELS 3 Xrotation Zrotation Yrotation 
		JOINT lShin
		{
			OFFSET -2.053232 -20.12167 0.000000
			CHANNELS 3 Xrotation Zrotation Yrotation 
			JOINT lFoot
			{
				OFFSET 0.000000 -19.30038 -1.231939
				CHANNELS 3 Xrotation Yrotation Zrotation 
				End Site
				{
					OFFSET 0.000000 -2.463878 4.653993
				}
			}
		}
	}
	JOINT rThigh
	{
		OFFSET -5.338403 -1.642589 1.368821
		CHANNELS 3 Xrotation Zrotation Yrotation 
		JOINT rShin
		{
			OFFSET 2.053232 -20.12167 0.000000
			CHANNELS 3 Xrotation Zrotation Yrotation 
			JOINT rFoot
			{
				OFFSET 0.000000 -19.30038 -1.231939
				CHANNELS 3 Xrotation Yrotation Zrotation 
				End Site
				{
					OFFSET 0.000000 -2.463878 4.653993
				}
			}
		}
	}
}
MOTION
Frames:	9
Frame Time:	0.03333333
-1.375000 43.52851 0.000000 1.000000 0.000000 0.000000 1.000000 0.000000 0.000000 1.000000 0.000000 0.000000 1.000000 0.000000 0.000000 1.000000 0.000000 0.000000 0.000000 0.000000 1.000000 -74.00000 18.62500 0.000000 -117.1250 1.750000 0.000000 0.000000 0.000000 -11.25000 0.000000 0.000000 1.000000 74.00000 -18.62500 0.000000 117.1250 -1.750000 0.000000 0.000000 0.000000 -11.25000 -11.00000 2.500000 1.625000 25.00000 0.000000 0.000000 -14.00000 0.000000 0.000000 -11.00000 -2.500000 -1.625000 25.00000 0.000000 0.000000 -14.00000 0.000000 0.000000 
-2.750000 43.52851 0.000000 1.000000 0.000000 0.000000 1.000000 0.000000 0.000000 1.000000 0.000000 0.000000 1.000000 0.000000 0.000000 1.000000 0.000000 0.000000 0.000000 0.000000 1.000000 -74.00000 5.250000 0.000000 -113.2500 3.500000 0.000000 0.000000 0.000000 -22.50000 0.000000 0.000000 1.000000 74.00000 -5.250000 0.000000 113.2500 -3.500000 0.000000 0.000000 0.000000 -22.50000 -11.00000 5.000000 3.250000 25.00000 0.000000 0.000000 -14.00000 0.000000 0.000000 -11.00000 -5.000000 -3.250000 25.00000 0.000000 0.000000 -14.00000 0.000000 0.000000 
-4.125000 43.52851 0.000000 1.000000 0.000000 0.000000 1.000000 0.000000 0.000000 1.000000 0.000000 0.000000 1.000000 0.000000 0.000000 1.000000 0.000000 0.000000 0.000000 0.000000 1.000000 -74.00000 -8.125000 0.000000 -109.3750 5.250000 0.000000 0.000000 0.000000 -33.75000 0.000000 0.000000 1.000000 74.00000 8.125000 0.000000 109.3750 -5.250000 0.000000 0.000000 0.000000 -33.75000 -11.00000 7.500000 4.875000 25.00000 0.000000 0.000000 -14.00000 0.000000 0.000000 -11.00000 -7.500000 -4.875000 25.00000 0.000000 0.000000 -14.00000 0.000000 0.000000 
-5.500000 43.52851 0.000000 1.000000 0.000000 0.000000 1.000000 0.000000 0.000000 1.000000 0.000000 0.000000 1.000000 0.000000 0.000000 1.000000 0.000000 0.000000 0.000000 0.000000 1.000000 -74.00000 -21.50000 0.000000 -105.5000 7.000000 0.000000 0.000000 0.000000 -45.00000 0.000000 0.000000 1.000000 74.00000 21.50000 0.000000 105.5000 -7.000000 0.000000 0.000000 0.000000 -45.00000 -11.00000 10.00000 6.500000 25.00000 0.000000 0.000000 -14.00000 0.000000 0.000000 -11.00000 -10.00000 -6.500000 25.00000 0.000000 0.000000 -14.00000 0.000000 0.000000 
-6.875000 43.52851 0.000000 1.000000 0.000000 0.000000 1.000000 0.000000 0.000000 1.000000 0.000000 0.000000 1.000000 0.000000 0.000000 1.000000 0.000000 0.000000 0.000000 0.000000 1.000000 -74.00000 -34.87500 0.000000 -101.6250 8.750000 0.000000 0.000000 0.000000 -56.25000 0.000000 0.000000 1.000000 74.00000 34.87500 0.000000 101.6250 -8.750000 0.000000 0.000000 0.000000 -56.25000 -11.00000 12.50000 8.125000 25.00000 0.000000 0.000000 -14.00000 0.000000 0.000000 -11.00000 -12.50000 -8.125000 25.00000 0.000000 0.000000 -14.00000 0.000000 0.000000 
-8.250000 43.52850 0.000000 1.000000 0.000000 0.000000 1.000000 0.000000 0.000000 1.000000 0.000000 0.000000 1.000000 0.000000 0.000000 1.000000 0.000000 0.000000 0.000000 0.000000 1.000000 -74.00000 -48.25000 0.000000 -97.75000 10.50000 0.000000 0.000000 0.000000 -67.50000 0.000000 0.000000 1.000000 74.00000 48.25000 0.000000 97.75000 -10.50000 0.000000 0.000000 0.000000 -67.50000 -11.00000 15.00000 9.750000 25.00000 0.000000 0.000000 -14.00000 0.000000 0.000000 -11.00000 -15.00000 -9.750000 25.00000 0.000000 0.000000 -14.00000 0.000000 0.000000 
-9.625000 43.52850 0.000000 1.000000 0.000000 0.000000 1.000000 0.000000 0.000000 1.000000 0.000000 0.000000 1.000000 0.000000 0.000000 1.000000 0.000000 0.000000 0.000000 0.000000 1.000000 -74.00000 -61.62500 0.000000 -93.87500 12.25000 0.000000 0.000000 0.000000 -78.75000 0.000000 0.000000 1.000000 74.00000 61.62500 0.000000 93.87500 -12.25000 0.000000 0.000000 0.000000 -78.75000 -11.00000 17.50000 11.37500 25.00000 0.000000 0.000000 -14.00000 0.000000 0.000000 -11.00000 -17.50000 -11.37500 25.00000 0.000000 0.000000 -14.00000 0.000000 0.000000 
-11.00000 43.52850 0.000000 1.000000 0.000000 0.000000 1.000000 0.000000 0.000000 1.000000 0.000000 0.000000 1.000000 0.000000 0.000000 1.000000 0.000000 0.000000 0.000000 0.000000 1.000000 -74.00000 -75.00000 0.000000 -90.00000 14.00000 0.000000 0.000000 0.000000 -90.00000 0.000000 0.000000 1.000000 74.00000 75.00000 0.000000 90.00000 -14.00000 0.000000 0.000000 0.000000 -90.00000 -11.00000 20.00000 13.00000 25.00000 0.000000 0.000000 -14.00000 0.000000 0.000000 -11.00000 -20.00000 -13.00000 25.00000 0.000000 0.000000 -14.00000 0.000000 0.000000 
-13.00000 43.52850 0.000000 1.000000 0.000000 0.000000 1.000000 0.000000 0.000000 1.000000 0.000000 0.000000 1.000000 0.000000 0.000000 1.000000 0.000000 0.000000 0.000000 0.000000 1.000000 -74.00000 -59.71429 0.000000 -94.42857 12.00000 0.000000 0.000000 0.000000 -77.14286 0.000000 0.000000 1.000000 74.00000 59.71429 0.000000 94.42857 -12.00000 0.000000 0.000000 0.000000 -77.14286 -11.00000 17.14286 11.14286 35.00000 0.000000 0.000000 -14.00000 0.000000 0.000000 -11.00000 -17.14286 -11.14286 25.00000 0.000000 0.000000 -14.00000 0.000000 0.000000 
